<svg width="23" height="15" viewBox="0 0 23 15" fill="none" xmlns="http://www.w3.org/2000/svg">
<path d="M18.5862 3.76207C18.5429 3.82931 18.4767 3.98264 18.3677 4.09268C17.1074 5.35907 15.841 6.61884 14.5761 7.88014C13.9908 8.46392 13.405 9.04669 12.8207 9.63098C12.6623 9.78941 12.4784 9.85308 12.2655 9.77361C12.0851 9.70637 11.9802 9.56679 11.9568 9.37271C11.9328 9.17659 12.0311 9.03497 12.1631 8.90354C12.9165 8.15573 13.6679 7.40588 14.4192 6.65603C15.5089 5.56946 16.598 4.48288 17.6861 3.39529C17.8384 3.24298 18.0029 3.14059 18.2291 3.20528C18.4446 3.26641 18.5832 3.44471 18.5862 3.76207Z" fill="black"/>
<path d="M13.333 3.05766C12.4843 3.05155 11.8536 3.6822 11.8516 4.5375C11.8501 5.39076 12.4878 6.03771 13.3248 6.0321C14.1582 6.0265 14.7863 5.38821 14.7878 4.54565C14.7889 3.69748 14.1694 3.06377 13.333 3.05766ZM13.3228 5.04945C13.0314 5.05149 12.82 4.83754 12.82 4.54208C12.8205 4.24815 13.0365 4.03063 13.3248 4.03369C13.6075 4.03675 13.8123 4.2451 13.8164 4.53444C13.8205 4.83295 13.6147 5.04793 13.3228 5.04945Z" fill="black"/>
<path d="M17.2319 6.96691C16.399 6.95673 15.7505 7.60775 15.75 8.45541C15.75 9.29848 16.3771 9.93677 17.2105 9.94136C18.0597 9.94594 18.6847 9.31733 18.6858 8.45745C18.6863 7.60775 18.0719 6.97761 17.2319 6.96691ZM17.211 8.95107C16.9196 8.9475 16.7169 8.74679 16.7149 8.4605C16.7128 8.17116 16.9293 7.95568 17.2217 7.95568C17.5167 7.95619 17.7286 8.1681 17.7265 8.46101C17.7245 8.75341 17.5126 8.95514 17.211 8.95107Z" fill="black"/>
<path d="M21.7504 8.07669C21.4442 7.91113 21.2196 7.66611 21.0632 7.3569C20.6118 6.46135 20.9318 5.38752 21.8008 4.89441C22.352 4.58214 22.6755 4.11348 22.704 3.48182C22.7325 2.85932 22.7147 2.23427 22.7045 1.61024C22.702 1.46048 22.6643 1.30664 22.6169 1.16349C22.3739 0.429432 21.7381 0.00050941 20.9002 0.00050941C16.9691 0 13.0384 0 9.10784 0V2.2251C9.35083 2.22663 9.51435 2.10845 9.56122 1.86291C9.59535 1.6836 9.59178 1.49665 9.60044 1.31275C9.60554 1.21189 9.60146 1.11 9.60146 0.986727C9.67482 0.982652 9.74155 0.97552 9.80777 0.97552C13.4939 0.97501 17.18 0.979595 20.866 0.970426C21.4345 0.968897 21.7672 1.31733 21.7381 1.85374C21.7132 2.32342 21.7229 2.79615 21.7361 3.26735C21.7473 3.63973 21.594 3.88731 21.2736 4.07375C19.838 4.91071 19.4417 6.77668 20.4035 8.13222C20.6383 8.46384 20.9307 8.73689 21.2873 8.93199C21.5981 9.10264 21.7438 9.35022 21.7356 9.70782C21.7249 10.2167 21.7346 10.7266 21.7325 11.2361C21.7305 11.7088 21.4519 11.9981 20.9832 12.018C20.9261 12.0205 20.8686 12.0195 20.8115 12.0195H9.60146C9.60146 11.8968 9.60554 11.7903 9.60044 11.6843C9.59025 11.4943 9.59331 11.3013 9.55663 11.1158C9.51079 10.8861 9.34319 10.773 9.10784 10.7735V12.9996C10.4394 12.9996 11.7705 12.9991 13.1021 12.9991H14.5891C16.7052 12.9991 18.8213 13.0017 20.9379 12.9981C21.9837 12.9966 22.7081 12.2661 22.7142 11.2172C22.7172 10.7272 22.7101 10.2366 22.7157 9.74654C22.7244 8.99618 22.4136 8.43532 21.7504 8.07669Z" fill="black"/>
<path d="M9.59993 4.7226C9.59993 4.91363 9.60299 5.10466 9.59891 5.29518C9.59229 5.60694 9.39464 5.81529 9.11141 5.81631H9.10784V3.59375H9.10886C9.39158 3.59324 9.59178 3.80159 9.59891 4.11233C9.6035 4.31558 9.59993 4.51935 9.59993 4.7226Z" fill="black"/>
<path d="M9.60044 8.47953C9.60146 8.61707 9.60197 8.7541 9.59891 8.89113C9.59127 9.1927 9.39719 9.39953 9.12363 9.40615H9.10784V7.18359H9.11497C9.39107 7.18665 9.58974 7.39041 9.5984 7.68944C9.60095 7.76126 9.60146 7.83309 9.60146 7.90492C9.60146 7.98795 9.60095 8.07099 9.60044 8.15402C9.59993 8.20241 9.59993 8.25132 9.59993 8.29971C9.59993 8.35982 9.60044 8.41993 9.60044 8.47953Z" fill="black"/>
<path d="M5.20409 1.92786C5.16557 1.92259 5.15226 1.91746 5.14087 1.92024C4.04813 2.18688 2.9532 2.44461 1.8647 2.72647C1.45382 2.83269 1.27002 3.20277 1.37088 3.62388C1.49494 4.1442 1.62705 4.66307 1.75012 5.18363C1.82133 5.4856 2.00447 5.66843 2.29719 5.76101C2.48999 5.82243 2.68473 5.88967 2.86377 5.98277C4.57838 6.88041 4.90607 9.16022 3.51216 10.5074C3.25673 10.7539 3.16687 11.0213 3.26022 11.3666C3.38604 11.8341 3.49256 12.3063 3.6075 12.7764C3.74797 13.3488 4.07583 13.5487 4.65159 13.409C5.63955 13.1685 6.62703 12.926 7.61474 12.6845C7.68006 12.6685 7.74393 12.6466 7.81682 12.6251C7.7879 12.5069 7.75987 12.4094 7.74074 12.3097C7.70502 12.1228 7.65669 11.9358 7.6468 11.7474C7.63478 11.5159 7.76901 11.3635 7.99023 11.3052L8.00161 11.3024L8.53031 13.4649C7.29863 13.7661 6.06695 14.0672 4.83503 14.3673C3.9824 14.5758 3.2145 14.2449 2.83146 13.5104C2.79023 13.4319 2.74877 13.3503 2.72747 13.2653C2.56925 12.6353 2.391 12.0092 2.26829 11.3721C2.15303 10.7741 2.3602 10.2573 2.80113 9.83638C3.31681 9.34372 3.51614 8.74329 3.3527 8.04905C3.1982 7.39353 2.78795 6.92745 2.14236 6.73864C1.35392 6.50819 0.907143 6.00856 0.7457 5.21524C0.634138 4.66669 0.4626 4.12808 0.382686 3.576C0.266538 2.76845 0.816048 1.99588 1.60052 1.77891C1.65607 1.76375 1.71125 1.74921 1.76667 1.73566L5.44291 0.836872L5.97137 2.99837C5.96197 3.00067 5.95257 3.00297 5.94255 3.0049C5.6697 3.06007 5.47359 2.92289 5.36578 2.57848C5.2998 2.36648 5.25781 2.14757 5.20409 1.92786Z" fill="black"/>
<path d="M6.29583 4.32764L6.82368 6.48667C6.55696 6.55188 6.31048 6.40604 6.23254 6.11726C6.12708 5.72454 6.03079 5.32854 5.94266 4.9316C5.87783 4.63856 6.02885 4.39396 6.29583 4.32764Z" fill="black"/>
<path d="M7.15158 7.81461L7.67943 9.97364C7.41148 10.0381 7.1644 9.88979 7.08647 9.5968C6.98151 9.20397 6.88435 8.80871 6.79709 8.41102C6.73373 8.12182 6.88658 7.88045 7.15158 7.81461Z" fill="black"/>
</svg>
