<svg width="20" height="13" viewBox="0 0 20 13" fill="none" xmlns="http://www.w3.org/2000/svg">
<g clip-path="url(#clip0_740_52545)">
<path d="M18.247 8.07661C17.9408 7.91105 17.7162 7.66603 17.5598 7.35682C17.1085 6.46129 17.4284 5.38746 18.2974 4.89436C18.8486 4.58209 19.1721 4.11344 19.2006 3.48178C19.2291 2.85929 19.2113 2.23425 19.2011 1.61023C19.1985 1.46046 19.1609 1.30662 19.1135 1.16348C18.8705 0.429428 18.2348 0.000509404 17.3968 0.000509404C12.2044 0 7.01258 0 1.82022 0C1.76316 0 1.70611 0.00101881 1.64855 0.00254702C0.835028 0.0269984 0.117787 0.646944 0.0388291 1.45893C-0.0146584 2.01418 0.0240564 2.5781 0.00215196 3.13742C-0.0294311 3.94636 0.28589 4.53777 0.997019 4.94886C1.57927 5.28558 1.86708 5.83574 1.86148 6.50917C1.85537 7.22234 1.51916 7.75823 0.901251 8.1143C0.372998 8.41842 0.0490172 8.87128 0.0189623 9.47951C-0.0131302 10.1275 0.0113212 10.778 0.0153965 11.4275C0.0153965 11.5151 0.0367915 11.6042 0.0581865 11.6903C0.255835 12.4947 0.923155 12.998 1.80086 12.9985C4.40035 13.0005 6.99933 12.999 9.59882 12.999H11.0858C13.2018 12.999 15.3179 13.0015 17.4345 12.998C18.4803 12.9964 19.2047 12.2659 19.2108 11.2171C19.2138 10.727 19.2067 10.2365 19.2123 9.74643C19.221 8.99608 18.9102 8.43523 18.247 8.07661ZM18.2292 11.2359C18.2271 11.7087 17.9485 11.998 17.4798 12.0179C17.4228 12.0204 17.3652 12.0194 17.3081 12.0194H6.09819C6.09819 11.8966 6.10227 11.7902 6.09718 11.6842C6.08699 11.4942 6.09004 11.3011 6.05337 11.1157C6.00701 10.8824 5.83432 10.7693 5.59287 10.7734C5.36414 10.7775 5.19757 10.8936 5.15427 11.1213C5.11912 11.3067 5.12167 11.4998 5.11199 11.6898C5.10689 11.7912 5.11097 11.8926 5.11097 12.0143C5.03507 12.0179 4.96783 12.024 4.90058 12.024C3.88381 12.0245 2.86704 12.025 1.85027 12.024C1.25783 12.023 0.986831 11.7509 0.986321 11.1616C0.986321 10.6776 0.994981 10.1937 0.983774 9.70976C0.975114 9.35216 1.1259 9.11375 1.43256 8.93495C3.10646 7.95741 3.32958 5.66509 1.87727 4.38597C1.72547 4.25302 1.55227 4.14146 1.37958 4.03601C1.11724 3.87657 0.982756 3.65549 0.985303 3.34526C0.989378 2.81038 0.984284 2.275 0.98734 1.74013C0.989378 1.30713 1.2558 0.991301 1.68013 0.985698C2.80439 0.970415 3.92915 0.980094 5.05392 0.980603C5.06563 0.980603 5.07735 0.988754 5.11352 1.00302C5.11352 1.22919 5.10231 1.4518 5.11606 1.67339C5.13899 2.03354 5.2969 2.21336 5.57504 2.22457C5.83432 2.23578 6.00905 2.1181 6.05795 1.86289C6.09208 1.68358 6.08852 1.49663 6.09718 1.31274C6.10227 1.21187 6.09819 1.10999 6.09819 0.986716C6.17155 0.982641 6.23828 0.975509 6.3045 0.975509C9.99055 0.975 13.6766 0.979585 17.3627 0.970415C17.9312 0.968887 18.2638 1.31732 18.2348 1.85372C18.2098 2.32339 18.2195 2.79612 18.2327 3.26732C18.2439 3.63969 18.0906 3.88726 17.7702 4.07371C16.3347 4.91066 15.9384 6.77661 16.9001 8.13213C17.135 8.46375 17.4273 8.73679 17.7839 8.9319C18.0947 9.10255 18.2404 9.35012 18.2322 9.70772C18.2215 10.2166 18.2312 10.7265 18.2292 11.2359Z" fill="black"/>
<path d="M6.09463 4.72259C6.09463 4.91362 6.09768 5.10464 6.09361 5.29516C6.08699 5.60692 5.88934 5.81526 5.60611 5.81628C5.33001 5.8173 5.12319 5.61711 5.11606 5.31707C5.10689 4.91056 5.1074 4.50304 5.11606 4.09653C5.12268 3.79598 5.32797 3.59426 5.60356 3.59375C5.88628 3.59324 6.08648 3.80159 6.09361 4.11232C6.09819 4.31558 6.09463 4.51934 6.09463 4.72259Z" fill="black"/>
<path d="M6.09514 8.47954C6.09616 8.61708 6.09667 8.75411 6.09361 8.89114C6.08597 9.19271 5.89189 9.39953 5.61834 9.40615C5.3346 9.41277 5.12218 9.2085 5.11606 8.89929C5.1074 8.49279 5.10689 8.08577 5.11606 7.67876C5.12319 7.38025 5.33256 7.18107 5.60917 7.18362C5.88526 7.18667 6.08393 7.39044 6.09259 7.68946C6.09514 7.76128 6.09565 7.83311 6.09565 7.90493C6.09565 7.98797 6.09514 8.071 6.09463 8.15403C6.09412 8.20243 6.09412 8.25133 6.09412 8.29972C6.09412 8.35983 6.09463 8.41994 6.09463 8.47954H6.09514Z" fill="black"/>
<path d="M15.0705 3.76206C15.0272 3.8293 14.961 3.98264 14.852 4.09267C13.5917 5.35905 12.3253 6.6188 11.0605 7.88009C10.4752 8.46387 9.88934 9.04663 9.30505 9.63091C9.14663 9.78934 8.96273 9.85301 8.7498 9.77354C8.56947 9.7063 8.46454 9.56673 8.4411 9.37264C8.41716 9.17652 8.51548 9.03491 8.64741 8.90348C9.40082 8.15568 10.1522 7.40583 10.9036 6.65599C11.9932 5.56943 13.0823 4.48287 14.1704 3.39529C14.3227 3.24298 14.4872 3.14059 14.7134 3.20528C14.9289 3.26641 15.0674 3.4447 15.0705 3.76206Z" fill="black"/>
<path d="M9.8251 3.05864C8.97643 3.05252 8.34579 3.68317 8.34375 4.53846C8.34222 5.39171 8.98 6.03865 9.81695 6.03305C10.6503 6.02745 11.2784 5.38916 11.28 4.54661C11.281 3.69845 10.6615 3.06475 9.8251 3.05864ZM9.81491 5.05041C9.52353 5.05245 9.31213 4.8385 9.31213 4.54304C9.31264 4.24912 9.52863 4.0316 9.81695 4.03466C10.0997 4.03771 10.3045 4.24606 10.3085 4.5354C10.3126 4.83391 10.1068 5.04888 9.81491 5.05041Z" fill="black"/>
<path d="M13.724 6.96691C12.8912 6.95673 12.2427 7.60775 12.2422 8.45539C12.2422 9.29846 12.8693 9.93674 13.7026 9.94133C14.5518 9.94591 15.1769 9.31731 15.1779 8.45743C15.1784 7.60775 14.5641 6.97761 13.724 6.96691ZM13.7032 8.95104C13.4118 8.94748 13.209 8.74677 13.207 8.46049C13.205 8.17115 13.4215 7.95567 13.7139 7.95567C14.0088 7.95618 14.2207 8.16809 14.2187 8.461C14.2166 8.7534 14.0047 8.95512 13.7032 8.95104Z" fill="black"/>
</g>
<defs>
<clipPath id="clip0_740_52545">
<rect width="19.2163" height="13" fill="white"/>
</clipPath>
</defs>
</svg>
